<svg xmlns="http://www.w3.org/2000/svg" xml:space="preserve" style="fill-rule:evenodd;clip-rule:evenodd;stroke-linejoin:round;stroke-miterlimit:2" viewBox="0 0 18 18"><path d="M17.25 8.934h-5.625V3.309c0-.691-.56-1.25-1.25-1.25h-1.25c-.69 0-1.25.559-1.25 1.25v5.625H2.25c-.69 0-1.25.559-1.25 1.25v1.25c0 .69.56 1.25 1.25 1.25h5.625v5.625c0 .69.56 1.25 1.25 1.25h1.25c.69 0 1.25-.56 1.25-1.25v-5.625h5.625c.69 0 1.25-.56 1.25-1.25v-1.25c0-.691-.56-1.25-1.25-1.25" style="fill-rule:nonzero" transform="translate(-1 -2.059)"/></svg>
