<?xml version="1.0" encoding="UTF-8" standalone="no"?>
<!DOCTYPE svg PUBLIC "-//W3C//DTD SVG 1.1//EN" "http://www.w3.org/Graphics/SVG/1.1/DTD/svg11.dtd">
<svg width="100%" height="100%" viewBox="0 0 23 14" version="1.1" xmlns="http://www.w3.org/2000/svg" xmlns:xlink="http://www.w3.org/1999/xlink" xml:space="preserve" xmlns:serif="http://www.serif.com/" style="fill-rule:evenodd;clip-rule:evenodd;stroke-linejoin:round;stroke-miterlimit:2;">
    <g transform="matrix(1,0,0,1,-3,-8.438)">
        <path d="M25.502,19.688C25.502,20.168 25.318,20.648 24.952,21.013C24.601,21.365 24.124,21.563 23.627,21.563C23.129,21.563 22.652,21.365 22.301,21.013L14.252,12.961L6.201,21.013C5.85,21.365 5.372,21.562 4.875,21.562C3.846,21.562 3,20.716 3,19.688C3,19.191 3.198,18.713 3.549,18.362L12.924,8.987C13.275,8.635 13.753,8.437 14.25,8.437C14.747,8.437 15.225,8.635 15.576,8.987L24.951,18.362C25.32,18.728 25.502,19.208 25.502,19.688"/>
    </g>
</svg>
