<svg xmlns="http://www.w3.org/2000/svg" xml:space="preserve" style="fill-rule:evenodd;clip-rule:evenodd;stroke-linejoin:round;stroke-miterlimit:2" viewBox="0 0 21 21"><path d="M19.424 1.769 15.362.832a.94.94 0 0 0-1.074.543L12.413 5.75a.936.936 0 0 0 .269 1.094l2.367 1.937a14.47 14.47 0 0 1-6.922 6.922L6.19 13.336a.94.94 0 0 0-1.094-.27L.721 14.941a.95.95 0 0 0-.547 1.079l.938 4.062a.94.94 0 0 0 .914.727c10.004 0 18.125-8.106 18.125-18.125a.94.94 0 0 0-.727-.915" style="fill-rule:nonzero" transform="translate(-.15 -.808)"/></svg>
