<svg xmlns="http://www.w3.org/2000/svg" xml:space="preserve" style="fill-rule:evenodd;clip-rule:evenodd;stroke-linejoin:round;stroke-miterlimit:2" viewBox="0 0 17 17"><path d="m14.127 12.808 6.099-6.098a.564.564 0 0 0 0-.797l-1.06-1.059a.56.56 0 0 0-.797 0l-6.098 6.098-6.099-6.098a.56.56 0 0 0-.797 0L4.316 5.913a.564.564 0 0 0 0 .797l6.099 6.098-6.099 6.099a.564.564 0 0 0 0 .797l1.059 1.059c.221.22.577.22.797 0l6.099-6.098 6.098 6.098c.221.22.577.22.797 0l1.06-1.059a.564.564 0 0 0 0-.797z" style="fill-rule:nonzero" transform="translate(-4.15 -4.688)"/></svg>
