<svg xmlns="http://www.w3.org/2000/svg" xml:space="preserve" style="fill-rule:evenodd;clip-rule:evenodd;stroke-linejoin:round;stroke-miterlimit:2" viewBox="0 0 24 24"><path d="M19.425 19.425A10.498 10.498 0 0 1 3.27 17.833 10.501 10.501 0 0 1 14.049 1.702a10.498 10.498 0 0 1 5.376 17.723M18.368 5.633A9.001 9.001 0 0 0 4.529 17.004a9.001 9.001 0 0 0 15.798-8.448 9 9 0 0 0-1.959-2.923M15.75 9.345 13.058 12l2.692 2.655a.75.75 0 0 1 .176.846.8.8 0 0 1-.176.249.75.75 0 0 1-.532.217.74.74 0 0 1-.525-.217L12 13.057 9.345 15.75a.752.752 0 0 1-1.057 0 .75.75 0 0 1 0-1.057L10.943 12 8.288 9.345a.75.75 0 0 1 1.057-1.057L12 10.943l2.655-2.655a.764.764 0 0 1 1.246.225.76.76 0 0 1-.151.832"/></svg>
