<?xml version="1.0" encoding="UTF-8"?> <svg xmlns="http://www.w3.org/2000/svg" fill="none" height="177" viewBox="0 0 910 177" width="910"><path d="m149.512 4.21423c44.194 0 80.02 35.84917 80.02 80.07147v88.5003c-18.608 0-33.693-15.095-33.693-33.715v-54.7853c0-25.6022-20.741-46.3572-46.327-46.3572h-21.905c-11.17.0002-21.884 4.4393-29.7819 12.3424l-57.0909 57.1321c-3.1591 3.16-4.9352 7.448-4.9355 11.918v2.893c0 9.31 7.5426 16.857 16.8464 16.857h75.8089c0 18.038-14.156 32.766-31.9573 33.67l-1.7356.045h-42.116c-27.912 0-50.53914-22.642-50.53914-50.572v-2.893c.00026-13.412 5.32459-26.2759 14.80224-35.7598l57.0952-57.1273c14.2167-14.2258 33.4976-22.21948 53.6036-22.21967z" fill="#2c8a19"></path><path d="m157.935 54.7856c11.63 0 21.058 9.4341 21.058 21.0715v96.9289c-18.608 0-33.693-15.095-33.693-33.715v-50.5711h-14.082l-27.525 27.5421c-3.9496 3.952-9.3055 6.172-14.8905 6.172h-34.1463c-1.7634 0-2.6466-2.133-1.3996-3.381l57.8404-57.8743c3.949-3.9513 9.304-6.1731 14.889-6.1731z" fill="#2c8a19"></path><path d="m356.933 128.82v-63.5091c0-4.5514-.744-8.4707-2.232-11.7578-1.489-3.3152-3.791-5.886-6.907-7.7122-3.117-1.8542-7.132-2.7814-12.046-2.7814-4.211 0-7.847.7305-10.908 2.1914-3.088 1.4329-5.461 3.4979-7.117 6.195-1.685 2.6691-2.527 5.8017-2.527 9.3979h-37.905c0-6.0686 1.404-11.814 4.212-17.2364 2.808-5.4505 6.893-10.2688 12.256-14.455 5.363-4.1581 11.75-7.4172 19.163-9.7772 7.412-2.3881 15.723-3.5821 24.932-3.5821 11.063 0 20.89 1.8543 29.481 5.5628 8.592 3.6805 15.373 9.2012 20.342 16.5622 4.942 7.389 7.413 16.6183 7.413 27.6878v60.9391c0 7.838.491 14.23 1.474 19.175.954 4.972 2.358 9.299 4.211 12.98v2.233h-38.325c-1.825-3.849-3.201-8.695-4.127-14.539-.927-5.844-1.39-11.702-1.39-17.574zm-16.973-54.6591h21.985l.252 21.4508h-21.184c-4.998 0-9.336.5759-13.014 1.7278-3.706 1.1238-6.739 2.7255-9.097 4.8045-2.359 2.051-4.099 4.439-5.222 7.164-1.095 2.725-1.643 5.717-1.643 8.977 0 3.23.758 6.138 2.274 8.723 1.488 2.613 3.636 4.636 6.444 6.069 2.808 1.461 6.093 2.191 9.855 2.191 5.7 0 10.656-1.152 14.867-3.456 4.212-2.275 7.483-5.085 9.813-8.428 2.331-3.315 3.538-6.476 3.622-9.482l9.982 16.098c-1.404 3.596-3.313 7.319-5.728 11.168-2.387 3.877-5.433 7.502-9.139 10.873-3.678 3.371-8.101 6.139-13.267 8.302-5.194 2.163-11.343 3.245-18.447 3.245-9.041 0-17.225-1.826-24.553-5.478-7.328-3.653-13.112-8.71-17.352-15.172-4.268-6.434-6.402-13.781-6.402-22.041 0-7.473 1.404-14.103 4.212-19.891 2.808-5.7877 6.963-10.6762 12.466-14.6658 5.475-3.9895 12.34-7.0238 20.595-9.1028 8.227-2.051 17.787-3.0765 28.681-3.0765zm137.803 59.7591c4.633 0 8.761-.9 12.383-2.698 3.593-1.798 6.415-4.34 8.465-7.627 2.078-3.288 3.159-7.165 3.243-11.632h35.672c-.112 10.002-2.794 18.88-8.044 26.634-5.279 7.783-12.34 13.893-21.184 18.333-8.873 4.439-18.784 6.658-29.734 6.658-11.063 0-20.693-1.854-28.892-5.563-8.227-3.68-15.049-8.794-20.468-15.34-5.447-6.546-9.533-14.188-12.256-22.925-2.724-8.71-4.085-18.08-4.085-28.1098v-3.7928c0-10.1143 1.361-19.5403 4.085-28.2779 2.723-8.7376 6.809-16.3655 12.256-22.8836 5.419-6.5461 12.213-11.6595 20.384-15.34 8.17-3.7085 17.731-5.5628 28.681-5.5628 11.68 0 21.928 2.2476 30.745 6.7428 8.816 4.4672 15.751 10.8448 20.805 19.1329 5.026 8.3162 7.595 18.1355 7.707 29.4579h-35.672c-.084-4.7481-1.081-9.0467-2.99-12.8958-1.882-3.8771-4.591-6.9816-8.129-9.3135-3.566-2.3319-7.932-3.4979-13.098-3.4979-5.531 0-10.052 1.166-13.561 3.4979-3.51 2.3319-6.233 5.4926-8.171 9.4821-1.937 3.9895-3.271 8.5129-4.001 13.57-.758 5.0572-1.137 10.3531-1.137 15.8879v3.7928c0 5.5348.351 10.8448 1.053 15.9298.702 5.114 2.05 9.637 4.043 13.57 1.966 3.962 4.703 7.08 8.213 9.356 3.509 2.276 8.072 3.414 13.687 3.414zm111.734-115.4719 2.359 29.5v112.9849h-38.031v-142.4849zm-2.906 66.2486h-10.529c0-9.9177 1.207-19.0767 3.622-27.4772 2.415-8.3724 5.967-15.6631 10.655-21.8721 4.717-6.181 10.529-10.9853 17.436-14.4129 6.936-3.4276 14.966-5.1414 24.091-5.1414 6.317 0 12.115.9412 17.394 2.8236 5.25 1.9104 9.785 4.8604 13.603 8.85 3.819 3.9895 6.781 9.1731 8.887 15.5507 2.105 6.3495 3.158 13.9633 3.158 22.8414v95.0742h-37.904v-90.8599c0-6.49-.87-11.491-2.611-15.0029-1.769-3.5119-4.254-5.9702-7.455-7.375-3.201-1.4047-7.033-2.1071-11.497-2.1071-4.914 0-9.196.9974-12.846 2.9921-3.65 2.0229-6.654 4.8184-9.013 8.3865-2.358 3.54-4.113 7.684-5.264 12.4321s-1.727 9.8474-1.727 15.2979zm84.78-4.3408-13.562 1.6858c0-9.2996 1.165-17.9388 3.496-25.9179 2.33-8.0071 5.798-15.0309 10.403-21.0714 4.604-6.0686 10.318-10.7886 17.141-14.16 6.851-3.3995 14.754-5.0993 23.711-5.0993 6.851 0 13.084.9974 18.7 2.9921 5.615 1.9667 10.416 5.0712 14.403 9.3136 3.987 4.2705 7.062 9.8333 9.224 16.6886 2.133 6.8552 3.2 15.2416 3.2 25.1593v90.9863h-38.03v-90.9863c0-6.6024-.857-11.6315-2.569-15.0872-1.713-3.4838-4.17-5.9-7.371-7.2486-3.2-1.3485-6.991-2.0228-11.371-2.0228-4.577 0-8.578.899-12.003 2.6971-3.397 1.7981-6.247 4.2705-8.55 7.4172-2.274 3.1747-3.987 6.8412-5.138 10.9993-1.123 4.1862-1.684 8.7376-1.684 13.6542zm176.213 83.2321c-11.035 0-20.946-1.784-29.734-5.352-8.76-3.568-16.201-8.513-22.321-14.834-6.093-6.322-10.754-13.669-13.983-22.041-3.257-8.372-4.885-17.307-4.885-26.8029v-5.2679c0-10.7885 1.53-20.664 4.59-29.6264 3.089-8.9624 7.497-16.7307 13.225-23.305 5.755-6.6024 12.761-11.6736 21.016-15.2136 8.254-3.5681 17.548-5.3521 27.88-5.3521 10.108 0 19.065 1.6717 26.87 5.015 7.806 3.3433 14.362 8.0914 19.668 14.2443 5.307 6.1247 9.322 13.4716 12.046 22.0407 2.723 8.569 4.085 18.0793 4.085 28.5307v15.8032h-113.208v-25.2853h75.935v-2.9079c0-5.2819-.94-10.0019-2.822-14.16-1.881-4.1862-4.702-7.5014-8.465-9.9457-3.79-2.4724-8.62-3.7086-14.488-3.7086-4.998 0-9.293 1.1098-12.887 3.3293-3.594 2.1914-6.514 5.2538-8.76 9.1871-2.247 3.9615-3.917 8.5972-5.012 13.9072s-1.643 11.1257-1.643 17.4471v5.2679c0 5.7029.815 10.9709 2.443 15.8039 1.629 4.832 3.959 9.004 6.991 12.516 3.005 3.512 6.683 6.237 11.035 8.176 4.352 1.91 9.293 2.866 14.825 2.866 6.822 0 13.196-1.335 19.12-4.004s11.035-6.729 15.33-12.179l18.447 20.018c-2.976 4.298-7.033 8.428-12.171 12.39-5.138 3.933-11.301 7.15-18.489 9.65-7.216 2.529-15.429 3.793-24.638 3.793z" fill="#17191c"></path></svg> 