<svg xmlns="http://www.w3.org/2000/svg" xml:space="preserve" style="fill-rule:evenodd;clip-rule:evenodd;stroke-linejoin:round;stroke-miterlimit:2" viewBox="0 0 29 24"><path d="M29.401 7.559h-26.5a.75.75 0 0 1-.75-.75v-2a.75.75 0 0 1 .75-.75h26.5a.75.75 0 0 1 .75.75v2a.75.75 0 0 1-.75.75m0 10h-26.5a.75.75 0 0 1-.75-.75v-2a.75.75 0 0 1 .75-.75h26.5a.75.75 0 0 1 .75.75v2a.75.75 0 0 1-.75.75m0 10h-26.5a.75.75 0 0 1-.75-.75v-2a.75.75 0 0 1 .75-.75h26.5a.75.75 0 0 1 .75.75v2a.75.75 0 0 1-.75.75" style="fill-rule:nonzero" transform="translate(-2.15 -4.059)"/></svg>
